<?xml version="1.0" standalone="no"?>
<!DOCTYPE svg PUBLIC "-//W3C//DTD SVG 20010904//EN"
 "http://www.w3.org/TR/2001/REC-SVG-20010904/DTD/svg10.dtd">
<svg version="1.0" xmlns="http://www.w3.org/2000/svg"
 width="2048.000000pt" height="2048.000000pt" viewBox="0 0 2048.000000 2048.000000"
 preserveAspectRatio="xMidYMid meet">

<g transform="translate(0.000000,2048.000000) scale(0.100000,-0.100000)"
fill="#000000" stroke="none">
<path d="M0 10240 l0 -10240 10240 0 10240 0 0 10240 0 10240 -10240 0 -10240
0 0 -10240z m4210 7735 c40 -42 33 -86 -22 -143 -78 -79 -123 -235 -116 -396
3 -80 8 -101 40 -166 50 -104 82 -145 248 -320 269 -282 306 -357 304 -600 -2
-149 -22 -236 -84 -361 -56 -113 -85 -148 -137 -171 -37 -16 -49 -17 -78 -8
-73 24 -86 91 -30 164 86 113 129 243 128 391 -1 170 -28 217 -253 450 -209
216 -265 296 -318 460 -26 78 -22 266 7 380 54 212 152 345 252 345 25 0 42
-7 59 -25z m1130 -714 c69 -68 40 -154 -55 -163 -40 -4 -80 -64 -101 -150 -16
-63 -16 -71 0 -112 9 -24 49 -86 88 -138 129 -170 172 -298 150 -444 -15 -98
-51 -171 -110 -226 -71 -66 -133 -100 -189 -101 -40 0 -50 4 -75 32 -33 36
-37 85 -10 117 9 11 37 32 62 46 55 31 99 74 112 108 5 14 10 54 10 90 1 83
-20 132 -111 259 -129 179 -151 258 -116 403 22 94 52 151 110 216 58 64 106
91 163 92 35 0 49 -6 72 -29z m-1865 -185 c60 -25 69 -68 30 -142 -28 -53 -34
-137 -13 -208 19 -65 104 -142 233 -212 226 -122 335 -278 335 -477 -1 -223
-199 -440 -301 -330 -37 38 -32 90 14 143 57 67 82 125 81 195 0 123 -55 192
-240 301 -69 41 -143 94 -180 130 -122 118 -167 270 -130 443 19 91 42 131 86
153 42 22 42 22 85 4z m9873 -442 c66 -32 174 -131 219 -202 35 -54 108 -233
136 -332 25 -89 36 -154 56 -340 54 -484 51 -699 -15 -985 -14 -60 -55 -249
-90 -420 -36 -170 -74 -355 -86 -410 -40 -187 -27 -458 26 -539 49 -76 306
-50 407 41 72 65 140 240 234 603 108 415 172 574 307 757 113 154 259 243
399 244 93 1 157 -44 248 -174 48 -70 72 -140 105 -303 44 -217 61 -389 84
-839 6 -116 10 -140 22 -139 8 1 173 30 365 64 381 67 401 68 439 17 26 -35
29 240 -29 -2497 -66 -3091 -52 -2730 -119 -3215 -90 -655 -116 -837 -122
-846 -2 -4 4 -13 15 -18 11 -6 24 -26 30 -44 13 -39 12 -44 -84 -307 -114
-314 -322 -891 -432 -1195 -57 -159 -122 -339 -145 -400 -47 -130 -45 -125
-233 -645 -80 -223 -180 -499 -222 -613 -41 -115 -73 -210 -71 -212 2 -3 450
22 994 56 544 33 1003 57 1020 54 59 -10 97 -79 74 -134 -25 -61 14 -57 -1118
-125 -574 -35 -1047 -67 -1051 -72 -4 -5 -34 -81 -65 -169 -32 -88 -75 -207
-96 -265 -21 -58 -60 -163 -85 -235 -223 -621 -334 -924 -350 -955 -8 -16 -29
-37 -47 -46 -63 -33 -138 16 -138 90 0 24 29 107 195 566 35 96 111 306 168
465 58 160 125 346 150 415 25 69 44 126 43 127 -1 1 -368 -20 -816 -48 -448
-27 -830 -48 -849 -45 -18 3 -41 12 -50 20 -13 11 -27 12 -76 4 -62 -10 -689
-4 -799 8 l-59 7 6 -154 c4 -84 12 -216 18 -294 10 -118 10 -145 -2 -170 -21
-44 -75 -76 -124 -74 -78 4 -183 -44 -276 -126 -97 -85 -143 -110 -209 -110
-88 0 -152 48 -170 129 -19 86 51 229 144 293 77 53 140 66 280 60 67 -2 129
-8 140 -12 17 -8 18 -4 12 46 -3 30 -11 137 -16 238 -5 101 -11 186 -13 188
-9 8 -343 44 -542 58 -291 20 -362 29 -675 81 -161 26 -367 69 -525 109 -337
85 -883 196 -892 182 -7 -11 -167 -476 -239 -697 -35 -103 -52 -141 -75 -163
-39 -36 -86 -36 -128 -1 -26 21 -31 33 -31 68 0 44 44 182 128 401 69 178 162
435 162 445 0 5 -46 23 -102 40 -111 34 -240 81 -355 128 -53 23 -74 27 -81
19 -15 -20 -79 -178 -110 -273 -37 -111 -66 -249 -96 -452 -21 -137 -26 -157
-50 -180 -24 -25 -33 -27 -101 -26 -42 0 -87 7 -100 14 -14 8 -48 49 -75 92
-57 90 -86 111 -185 133 -107 25 -180 61 -229 116 -84 93 -82 187 4 270 86 84
220 106 345 59 48 -18 77 -39 146 -109 l86 -87 18 74 c29 126 108 350 151 435
14 26 14 28 -17 45 -78 43 -192 121 -284 197 -55 45 -143 113 -195 153 -134
100 -397 362 -441 438 -59 100 -74 148 -60 194 6 21 26 51 44 66 31 26 35 26
124 21 95 -6 173 5 270 38 85 29 271 122 349 176 142 98 356 336 395 438 l18
48 -25 24 c-51 47 -173 206 -235 304 -132 211 -204 398 -269 697 -76 355 -83
419 -87 848 -5 411 15 1045 43 1403 9 109 14 201 11 203 -3 3 -45 -9 -93 -26
-106 -37 -255 -75 -379 -95 -107 -18 -460 -20 -638 -4 -228 20 -652 147 -836
250 l-54 31 -33 -38 c-21 -25 -31 -46 -28 -59 28 -130 123 -731 118 -748 -25
-84 -141 -101 -180 -26 -11 23 -134 688 -134 728 0 6 -22 20 -50 32 -59 26
-114 83 -130 136 -18 63 -24 186 -11 226 7 21 32 61 55 90 l43 52 -203 1180
c-112 649 -206 1190 -209 1201 -4 17 -15 23 -49 28 -97 15 -161 99 -211 276
-34 123 -45 152 -58 147 -23 -7 -39 -93 -52 -282 -15 -221 -29 -286 -80 -391
-44 -89 -98 -152 -166 -189 -48 -26 -63 -30 -134 -29 -66 0 -89 5 -131 26
-143 75 -171 132 -204 422 -34 307 -98 616 -190 922 -144 479 -200 793 -200
1125 0 213 12 298 60 413 51 122 103 192 253 342 211 209 338 286 519 314 37
6 115 21 172 35 167 39 283 55 411 55 229 0 364 -28 515 -106 165 -85 244
-166 330 -338 63 -127 93 -240 125 -481 14 -104 37 -251 50 -325 28 -158 39
-238 60 -455 24 -244 59 -475 115 -749 54 -268 63 -391 40 -534 -39 -239 -186
-364 -390 -331 -124 20 -197 77 -299 233 -61 94 -80 144 -105 284 -16 91 -38
135 -64 130 -27 -5 -40 -45 -63 -189 -14 -93 -29 -151 -48 -189 -20 -42 -25
-61 -18 -80 5 -14 102 -567 216 -1229 l207 -1203 49 -19 c64 -23 108 -74 128
-144 24 -85 76 -121 284 -196 224 -81 464 -136 655 -150 242 -17 486 -8 631
25 139 30 281 76 357 114 l55 28 6 64 c4 36 7 119 8 186 0 66 8 242 17 390 28
468 10 1202 -46 1854 -13 151 -13 599 0 770 14 184 48 452 66 525 55 221 120
363 210 455 104 108 200 143 327 121 39 -7 95 -16 122 -20 85 -11 170 -82 233
-193 40 -69 101 -229 204 -533 22 -66 57 -154 78 -195 57 -113 153 -254 196
-286 34 -26 44 -29 113 -28 42 0 103 9 136 18 178 52 209 112 274 536 43 281
50 354 61 650 15 389 27 530 60 723 64 374 150 579 332 794 138 163 299 273
495 339 103 35 235 37 335 5 150 -48 310 -218 392 -416 16 -39 56 -132 88
-207 32 -75 67 -163 77 -195 45 -140 77 -369 91 -655 11 -229 22 -305 61 -445
53 -188 123 -303 198 -323 108 -29 316 62 436 191 124 132 152 229 225 779 45
341 67 470 146 843 30 142 72 365 94 496 60 354 81 417 187 558 127 169 257
216 401 147z"/>
<path d="M13145 16407 c-107 -110 -130 -177 -190 -542 -20 -121 -58 -321 -85
-445 -70 -323 -106 -528 -146 -829 -63 -478 -90 -608 -154 -736 -107 -216
-320 -380 -563 -432 -261 -55 -432 89 -538 452 -41 143 -57 250 -69 463 -23
430 -50 579 -145 797 -24 55 -61 143 -83 196 -45 111 -91 184 -159 253 -76 77
-111 91 -223 91 -87 0 -102 -3 -176 -36 -115 -50 -214 -120 -299 -211 -176
-187 -258 -367 -319 -700 -37 -199 -45 -289 -61 -678 -16 -388 -19 -415 -71
-760 -51 -335 -83 -434 -172 -532 -50 -56 -106 -91 -187 -121 -155 -55 -316
-61 -419 -14 -143 66 -301 312 -421 660 -80 232 -151 421 -167 446 -7 12 -26
25 -43 31 -16 6 -48 30 -70 54 -33 36 -49 45 -88 51 -68 10 -126 -14 -175 -73
-50 -60 -64 -87 -101 -202 -49 -154 -59 -206 -87 -431 -37 -301 -40 -779 -6
-1199 12 -157 27 -373 32 -480 13 -254 12 -945 0 -1130 -6 -80 -15 -299 -20
-487 -5 -187 -19 -460 -29 -605 -31 -405 -45 -830 -46 -1318 0 -416 1 -454 23
-590 32 -202 98 -497 134 -599 112 -317 298 -572 588 -806 63 -51 151 -125
195 -163 116 -103 295 -211 605 -369 291 -148 599 -278 865 -368 74 -25 483
-107 620 -124 156 -20 381 -32 480 -26 90 6 303 29 635 69 131 16 570 116 673
153 38 13 121 49 185 80 64 30 185 86 267 123 250 113 329 165 466 307 176
182 336 377 639 778 440 584 556 801 775 1460 44 133 64 233 75 383 12 164 33
327 60 457 25 122 38 224 50 390 16 229 40 511 56 660 23 202 27 461 16 865
-8 261 -7 397 1 515 18 247 15 843 -6 1065 -9 102 -22 316 -27 475 -6 160 -19
400 -30 535 -10 135 -24 333 -30 440 -31 567 -40 662 -86 890 -28 140 -64 227
-118 279 -34 33 -37 34 -73 23 -111 -33 -200 -131 -297 -327 -78 -156 -99
-220 -176 -520 -90 -353 -173 -567 -254 -661 -50 -59 -136 -113 -225 -142 -65
-22 -94 -26 -206 -26 -151 0 -215 18 -280 81 -130 126 -160 433 -80 808 20 94
56 271 81 395 25 124 56 268 69 320 71 284 76 477 24 955 -24 224 -43 313 -98
455 -52 135 -86 188 -154 239 -74 56 -98 55 -162 -12z m-2471 -5438 c28 -22
36 -72 16 -108 -5 -10 -60 -64 -123 -119 -91 -81 -116 -109 -126 -141 -22 -74
-94 -90 -153 -33 -22 20 -28 35 -28 67 0 55 37 111 145 214 142 136 210 167
269 120z m-1506 -90 c17 -6 42 -25 55 -43 16 -20 66 -53 138 -91 135 -69 166
-91 185 -127 21 -41 17 -66 -15 -99 -41 -41 -72 -37 -188 21 -139 70 -242 140
-276 190 -34 49 -10 127 47 150 11 5 21 9 22 9 1 1 15 -4 32 -10z m1544 -589
c21 -6 50 -26 68 -47 30 -33 32 -40 28 -94 -5 -72 -39 -120 -102 -144 -58 -22
-105 -14 -151 26 -89 79 -53 226 62 257 51 13 53 13 95 2z m-1422 -142 c69
-48 92 -153 48 -218 -79 -115 -253 -78 -265 57 -8 91 66 183 147 183 22 0 50
-9 70 -22z m1131 -317 c51 -52 39 -117 -41 -226 -130 -175 -301 -237 -524
-190 -176 37 -356 172 -356 266 0 55 40 99 89 99 39 0 45 -5 102 -72 58 -70
227 -129 323 -114 103 17 163 64 246 193 52 80 109 96 161 44z m1052 -707 c91
-46 159 -138 186 -247 13 -54 16 -164 6 -197 -15 -46 123 -169 257 -229 131
-60 411 -106 542 -90 281 35 450 96 664 238 114 77 203 163 320 313 70 88 101
119 126 128 85 28 155 -46 120 -128 -17 -42 -183 -251 -257 -323 -70 -69 -191
-159 -302 -224 -199 -116 -375 -172 -648 -206 -121 -14 -255 -1 -426 41 -202
51 -314 108 -436 222 l-73 68 -48 -27 c-69 -39 -188 -45 -262 -13 -65 28 -115
83 -158 174 -108 227 -29 458 173 505 66 16 181 13 216 -5z"/>
<path d="M4760 15384 c-150 -28 -240 -48 -262 -60 -15 -8 -41 -14 -57 -14 -80
0 -266 -88 -381 -180 -41 -33 -89 -67 -107 -75 -37 -18 -149 -142 -188 -210
-61 -103 -78 -176 -83 -356 -2 -93 1 -219 7 -285 22 -222 107 -590 220 -959
58 -188 132 -568 162 -829 11 -99 27 -195 34 -212 17 -41 58 -68 103 -68 29 0
42 8 73 43 70 79 88 154 108 462 14 207 53 307 145 368 33 22 51 26 107 26 59
0 73 -4 111 -30 53 -38 92 -108 124 -223 37 -133 54 -172 76 -172 27 0 42 44
62 179 10 63 27 139 38 168 47 126 159 192 277 163 116 -28 191 -147 217 -345
9 -67 23 -100 84 -190 61 -91 96 -115 166 -115 42 0 56 5 78 26 37 38 57 112
63 239 5 104 2 124 -46 360 -63 312 -84 446 -116 755 -28 278 -27 269 -65 485
-15 88 -36 221 -45 295 -38 311 -104 485 -226 594 -62 55 -188 119 -279 141
-64 15 -349 29 -400 19z m-173 -99 c30 -21 38 -71 20 -131 -8 -27 -38 -146
-67 -264 -87 -357 -97 -380 -175 -380 -53 0 -95 39 -95 90 0 18 25 119 55 224
30 105 68 242 84 305 35 133 61 171 121 171 19 0 45 -7 57 -15z m616 -5 c13
-11 28 -31 31 -45 6 -23 -69 -351 -96 -418 -22 -57 -92 -75 -141 -37 -45 35
-44 71 8 261 25 95 53 185 61 200 30 58 90 76 137 39z m-320 -20 c36 -29 41
-63 17 -117 -20 -46 -92 -326 -105 -413 -14 -87 -44 -120 -107 -120 -51 0 -88
43 -88 101 0 68 90 420 127 494 34 70 105 95 156 55z m-619 -99 c31 -27 38
-58 20 -99 -25 -60 -105 -342 -114 -407 -7 -48 -15 -65 -40 -87 -42 -38 -97
-38 -135 -1 -25 25 -27 33 -23 88 4 52 71 285 125 434 33 90 109 123 167 72z
m1110 -312 c34 -16 59 -71 51 -111 -20 -87 -318 -289 -537 -364 -160 -54 -267
-69 -498 -68 -441 1 -620 48 -620 164 0 79 82 116 156 71 45 -27 178 -41 400
-41 284 0 461 36 640 129 111 58 189 109 251 165 77 68 105 78 157 55z"/>
<path d="M15730 13449 c-152 -27 -287 -46 -302 -43 -34 7 -34 14 -13 -216 8
-91 19 -293 25 -450 5 -157 20 -409 31 -560 19 -245 20 -315 13 -640 -4 -201
-6 -635 -5 -965 3 -496 0 -625 -13 -745 -18 -163 -40 -419 -61 -710 -16 -217
-28 -312 -55 -446 -26 -126 -48 -294 -60 -458 -16 -217 -40 -308 -195 -736
-31 -85 -59 -163 -62 -172 -5 -17 7 -18 163 -19 346 -2 549 3 562 13 6 6 12
25 12 42 0 17 32 263 70 546 l71 515 49 2235 c26 1229 52 2376 55 2548 4 176
4 312 -1 311 -5 0 -133 -23 -284 -50z"/>
<path d="M14904 7039 c-93 -186 -234 -399 -478 -724 -248 -331 -379 -494 -553
-691 -241 -272 -339 -347 -623 -474 -63 -29 -185 -85 -270 -125 -206 -97 -283
-123 -555 -185 -126 -29 -232 -57 -233 -62 -2 -4 -20 -31 -39 -60 -77 -112
-173 -328 -226 -513 -52 -178 -93 -445 -85 -555 l3 -45 85 -8 c47 -5 229 -10
405 -10 l320 -2 130 98 c470 353 565 430 885 713 341 302 729 712 1022 1079
53 66 139 172 190 235 223 274 511 727 655 1030 36 74 86 171 113 215 27 44
52 92 55 106 l6 26 -318 6 c-175 4 -348 10 -385 13 l-66 7 -38 -74z"/>
<path d="M15416 6117 c-103 -168 -243 -368 -368 -523 -62 -77 -157 -195 -212
-264 -287 -356 -677 -770 -986 -1044 -368 -326 -461 -404 -738 -611 -73 -54
-131 -100 -129 -101 4 -4 1576 92 1581 97 2 2 25 63 51 134 26 72 85 236 132
365 46 129 102 285 125 345 54 149 137 378 469 1300 71 198 134 371 140 384
22 51 0 25 -65 -82z"/>
<path d="M8396 5774 c-82 -147 -308 -388 -459 -488 -152 -101 -371 -192 -524
-217 -40 -7 -73 -15 -73 -19 0 -14 316 -307 396 -368 45 -33 131 -101 192
-149 109 -87 225 -163 250 -163 7 0 25 21 40 46 74 125 251 338 363 435 175
152 399 285 608 359 l105 37 -150 76 c-175 89 -389 229 -491 321 -94 84 -209
176 -222 176 -5 0 -21 -21 -35 -46z"/>
<path d="M9521 5099 c-16 -13 -39 -19 -76 -19 -161 0 -545 -207 -755 -406
-123 -118 -310 -352 -310 -389 0 -12 258 -113 395 -154 190 -56 291 -81 590
-141 165 -34 415 -90 555 -125 380 -96 748 -157 1085 -180 121 -8 285 -23 365
-32 80 -9 172 -17 205 -17 l60 -1 2 50 c6 111 25 276 44 370 38 188 135 451
225 609 24 44 42 81 39 84 -2 3 -105 -8 -227 -24 -188 -24 -258 -28 -443 -28
-138 1 -271 7 -355 17 -145 17 -563 96 -657 123 -100 29 -497 183 -663 257
-55 24 -56 25 -79 6z"/>
</g>
</svg>
